<svg xmlns="http://www.w3.org/2000/svg" version="1.1" xmlns:xlink="http://www.w3.org/1999/xlink" xmlns:svgjs="http://svgjs.com/svgjs" width="512" height="512" x="0" y="0" viewBox="0 0 512 512" style="enable-background:new 0 0 512 512" xml:space="preserve" class=""><g><g xmlns="http://www.w3.org/2000/svg"><path d="m512 121.999h-352.771l252.008-93.886-10.473-28.112-317.469 118.273-56.562-111.026-26.73 13.618 51.521 101.133h-51.524v360h31v30h30v-30h390v30h30v-30h31zm-451 60h390v120h-390zm75 240c-24.81 0-45-20.19-45-45s20.19-45 45-45 45 20.19 45 45-20.19 45-45 45zm165 0h-90v-30h90zm0-60h-90v-30h90zm75 60c-24.81 0-45-20.19-45-45s20.19-45 45-45 45 20.19 45 45-20.19 45-45 45z" fill="#ffffff" data-original="#000000" class=""></path><path d="m91 271.999h30v-30h30v30h30v-30h30v30h30v-30h30v30h30v-30h30v30h30v-30h30v30h30v-60h-330z" fill="#ffffff" data-original="#000000" class=""></path><circle cx="376" cy="376.999" r="15" fill="#ffffff" data-original="#000000" class=""></circle><circle cx="136" cy="376.999" r="15" fill="#ffffff" data-original="#000000" class=""></circle></g></g></svg>